<?xml version="1.0" encoding="UTF-8"?>
<svg version="1.1" xmlns="http://www.w3.org/2000/svg" width="64" height="64">
<path d="M0 0 C1.34800023 0.98013936 2.68337543 1.97810102 4 3 C7.19235272 2.77426109 7.19235272 2.77426109 10 2 C10.91026797 5.07215439 11.25288404 7.79680216 11 11 C10.34 11.66 9.68 12.32 9 13 C8.53434266 14.52758321 8.12487299 16.07264132 7.75 17.625 C5.68611269 24.7055639 2.22912607 29.85407625 -3.9375 34 C-10.15584869 37.13032519 -17.22916773 36.89383924 -24 36 C-27.40234375 34.60546875 -27.40234375 34.60546875 -30 33 C-30.875 30.8125 -30.875 30.8125 -31 29 C-29.68 28.67 -28.36 28.34 -27 28 C-27.49371094 27.31292969 -27.98742187 26.62585938 -28.49609375 25.91796875 C-29.45708984 24.56638672 -29.45708984 24.56638672 -30.4375 23.1875 C-31.07558594 22.29417969 -31.71367187 21.40085937 -32.37109375 20.48046875 C-34.99295777 16.487942 -35.11276222 13.48688675 -35.0625 8.8125 C-35.05347656 7.72582031 -35.04445313 6.63914062 -35.03515625 5.51953125 C-35.02355469 4.68808594 -35.01195312 3.85664063 -35 3 C-32.51690184 4.19359225 -30.40370855 5.41481144 -28.125 7 C-25.10371329 8.93362349 -22.43212548 10.01939272 -19 11 C-18.690625 9.6696875 -18.690625 9.6696875 -18.375 8.3125 C-14.86432987 -0.1450235 -8.53529196 -1.54718283 0 0 Z M-15 8 C-15.87989974 11.18150892 -15.87989974 11.18150892 -16 14 C-21.80165739 13.02541328 -26.83982722 11.98746845 -32 9 C-32 10.32 -32 11.64 -32 13 C-31.01 13 -30.02 13 -29 13 C-29.33 14.65 -29.66 16.3 -30 18 C-29.401875 18.391875 -28.80375 18.78375 -28.1875 19.1875 C-25.69710114 21.25097334 -24.38481555 23.08459885 -23 26 C-24 29 -24 29 -26 31 C-22.10116675 33.59922217 -18.67910442 34.32583702 -13.9765625 33.75390625 C-6.454263 32.12551575 -1.49263895 28.23977632 3 22 C4.62982595 18.19707277 5.24269903 15.12588355 5 11 C5.66 10.67 6.32 10.34 7 10 C6.505 9.01 6.505 9.01 6 8 C5.01 7.67 4.02 7.34 3 7 C2.46375 6.319375 1.9275 5.63875 1.375 4.9375 C-1.74432924 2.39278404 -3.86644693 2.36244145 -7.80859375 2.55078125 C-11.44553066 3.2963209 -12.92700585 5.0200709 -15 8 Z " fill="#DA1414" transform="translate(44,14)"/>
<path d="M0 0 C0 0.66 0 1.32 0 2 C-1.2065625 2.4021875 -1.2065625 2.4021875 -2.4375 2.8125 C-3.283125 3.204375 -4.12875 3.59625 -5 4 C-5.97826482 6.93479445 -6.12660743 8.82617152 -6.12939453 11.8828125 C-6.13254669 12.87394043 -6.13569885 13.86506836 -6.13894653 14.88623047 C-6.1369223 15.95502441 -6.13489807 17.02381836 -6.1328125 18.125 C-6.13376923 19.22344238 -6.13472595 20.32188477 -6.13571167 21.45361328 C-6.13639245 23.77701881 -6.13454525 26.10042624 -6.13037109 28.42382812 C-6.12502145 31.98572043 -6.13031956 35.54748663 -6.13671875 39.109375 C-6.13605795 41.36458361 -6.13477675 43.61979215 -6.1328125 45.875 C-6.13483673 46.94379395 -6.13686096 48.01258789 -6.13894653 49.11376953 C-6.13421829 50.60046143 -6.13421829 50.60046143 -6.12939453 52.1171875 C-6.12859894 52.98972168 -6.12780334 53.86225586 -6.12698364 54.76123047 C-6.08833692 57.17165101 -6.08833692 57.17165101 -5 60 C-2.06520555 60.97826482 -0.17382848 61.12660743 2.8828125 61.12939453 C3.87394043 61.13254669 4.86506836 61.13569885 5.88623047 61.13894653 C7.48942139 61.13591019 7.48942139 61.13591019 9.125 61.1328125 C10.77266357 61.13424759 10.77266357 61.13424759 12.45361328 61.13571167 C14.77701881 61.13639245 17.10042624 61.13454525 19.42382812 61.13037109 C22.98572043 61.12502145 26.54748663 61.13031956 30.109375 61.13671875 C32.36458361 61.13605795 34.61979215 61.13477675 36.875 61.1328125 C37.94379395 61.13483673 39.01258789 61.13686096 40.11376953 61.13894653 C41.10489746 61.13579437 42.09602539 61.13264221 43.1171875 61.12939453 C43.98972168 61.12859894 44.86225586 61.12780334 45.76123047 61.12698364 C48.17165101 61.08833692 48.17165101 61.08833692 51 60 C52.21869929 57.49552484 52.21869929 57.49552484 53 55 C53.66 55 54.32 55 55 55 C55.3648941 60.47341153 55.3648941 60.47341153 53.83935547 62.67495728 C51.28797048 64.51293486 49.51266361 64.38082121 46.3828125 64.38818359 C45.23151855 64.39764008 44.08022461 64.40709656 42.89404297 64.4168396 C41.65025879 64.41076691 40.40647461 64.40469421 39.125 64.3984375 C37.84898926 64.40130768 36.57297852 64.40417786 35.25830078 64.40713501 C32.55795884 64.40917835 29.85842919 64.40513392 27.15820312 64.39111328 C23.6978077 64.37402089 20.23811029 64.38386307 16.77774048 64.40183067 C13.47680194 64.41528016 10.17594764 64.40586244 6.875 64.3984375 C5.63121582 64.40451019 4.38743164 64.41058289 3.10595703 64.4168396 C1.95466309 64.40738312 0.80336914 64.39792664 -0.3828125 64.38818359 C-1.39746582 64.38579681 -2.41211914 64.38341003 -3.45751953 64.38095093 C-6 64 -6 64 -7.82681274 62.82681274 C-9.46634654 60.27383477 -9.3810678 58.40783718 -9.38818359 55.3828125 C-9.39764008 54.23151855 -9.40709656 53.08022461 -9.4168396 51.89404297 C-9.41076691 50.65025879 -9.40469421 49.40647461 -9.3984375 48.125 C-9.40130768 46.84898926 -9.40417786 45.57297852 -9.40713501 44.25830078 C-9.40917835 41.55795884 -9.40513392 38.85842919 -9.39111328 36.15820312 C-9.37402089 32.6978077 -9.38386307 29.23811029 -9.40183067 25.77774048 C-9.41528016 22.47680194 -9.40586244 19.17594764 -9.3984375 15.875 C-9.40451019 14.63121582 -9.41058289 13.38743164 -9.4168396 12.10595703 C-9.40265488 10.37901611 -9.40265488 10.37901611 -9.38818359 8.6171875 C-9.38579681 7.60253418 -9.38341003 6.58788086 -9.38095093 5.54248047 C-9 3 -9 3 -7.67495728 1.16064453 C-5.16815686 -0.5764172 -2.9616064 -0.19744043 0 0 Z " fill="#D91515" transform="translate(9,0)"/>
<path d="M0 0 C6.49603988 -0.10129515 12.99187668 -0.17142075 19.48852539 -0.21972656 C21.69921479 -0.23986064 23.90985082 -0.26717015 26.12036133 -0.30175781 C29.29521846 -0.35019629 32.46937248 -0.37295072 35.64453125 -0.390625 C36.63524124 -0.41127014 37.62595123 -0.43191528 38.64668274 -0.45318604 C39.56741074 -0.45348816 40.48813873 -0.45379028 41.43676758 -0.45410156 C42.2472908 -0.46298401 43.05781403 -0.47186646 43.89289856 -0.48101807 C46 0 46 0 47.76391602 1.71887207 C49.19957818 4.36831102 49.36376844 5.95261535 49.34057617 8.95214844 C49.34023628 10.42322052 49.34023628 10.42322052 49.33988953 11.92401123 C49.32440567 12.97518127 49.30892181 14.02635132 49.29296875 15.109375 C49.28872391 16.19132141 49.28447906 17.27326782 49.28010559 18.38800049 C49.26331845 21.8422539 49.22566527 25.29592304 49.1875 28.75 C49.17245325 31.09243949 49.15876483 33.43488813 49.14648438 35.77734375 C49.11341481 41.51842838 49.06321466 47.25917245 49 53 C48.34 53 47.68 53 47 53 C46.970271 51.14652954 46.970271 51.14652954 46.93994141 49.25561523 C46.86359426 44.65027251 46.77492243 40.04523378 46.68261719 35.44018555 C46.64444739 33.450989 46.60957402 31.46172626 46.578125 29.47241211 C46.53221303 26.6050661 46.47426253 23.73817112 46.4140625 20.87109375 C46.40251129 19.98852402 46.39096008 19.10595428 46.37905884 18.19664001 C46.25915921 13.12576095 45.78051027 8.77162516 44 4 C41.73961146 2.86980573 40.42881174 2.84731043 37.91748047 2.79467773 C37.07675995 2.77473251 36.23603943 2.75478729 35.36984253 2.73423767 C34.00727829 2.70916893 34.00727829 2.70916893 32.6171875 2.68359375 C31.68778351 2.66281265 30.75837952 2.64203156 29.80081177 2.62062073 C26.8256179 2.55512354 23.85033423 2.49623948 20.875 2.4375 C18.86066772 2.39431494 16.84634459 2.35070066 14.83203125 2.30664062 C9.88811337 2.19944197 4.94410497 2.09817499 0 2 C0 1.34 0 0.68 0 0 Z " fill="#DA1616" transform="translate(15,0)"/>
<path d="M0 0 C0.66 0 1.32 0 2 0 C2 0.66 2 1.32 2 2 C1.34 2 0.68 2 0 2 C0 1.34 0 0.68 0 0 Z " fill="#DA1616" transform="translate(11,0)"/>
</svg>
